/* XPM */
static char *Pixmap[] = {
"24 24 256 3",
"000 c #459BB5",
"001 c #4C9EB2",
"002 c #509AB2",
"003 c #509BB3",
"004 c #529DB4",
"005 c #529EB5",
"006 c #539FB6",
"007 c #549EB5",
"008 c #589CB4",
"009 c #4FA0B6",
"010 c #49A0B9",
"011 c #49A1B9",
"012 c #4AA2BA",
"013 c #4DA6BD",
"014 c #4EA7BE",
"015 c #50A3B7",
"016 c #55A0B7",
"017 c #51A5B8",
"018 c #53A7BA",
"019 c #55A2B8",
"020 c #56A3B9",
"021 c #57A3B9",
"022 c #57A4BA",
"023 c #54A8BB",
"024 c #55A8BB",
"025 c #58A5BB",
"026 c #58A7BB",
"027 c #5AA8BD",
"028 c #5BA9BD",
"029 c #5CAABF",
"030 c #64A5BD",
"031 c #63A8BE",
"032 c #69A7BE",
"033 c #50AAC0",
"034 c #51ABC1",
"035 c #53ADC3",
"036 c #54AEC4",
"037 c #55B0C5",
"038 c #56B1C6",
"039 c #57B2C7",
"040 c #57B3C7",
"041 c #5BB0C1",
"042 c #5BB1C2",
"043 c #5AB6CA",
"044 c #5BB7CB",
"045 c #5CB9CC",
"046 c #5CB9CD",
"047 c #5EBCCE",
"048 c #68ABC2",
"049 c #6DABC3",
"050 c #60B7C7",
"051 c #67B0C3",
"052 c #6BB4C8",
"053 c #60BFD1",
"054 c #70ADC4",
"055 c #75ACC6",
"056 c #70B1C9",
"057 c #63C1D3",
"058 c #67C7D7",
"059 c #67C8D8",
"060 c #69CADA",
"061 c #6BCCDB",
"062 c #6ED0DE",
"063 c #6FD2DF",
"064 c #70D3E1",
"065 c #71D3E1",
"066 c #74D8E5",
"067 c #75D9E5",
"068 c #7CE3ED",
"069 c #7FE6EF",
"070 c #90BAD0",
"071 c #91BAD0",
"072 c #93BBD1",
"073 c #92BAD2",
"074 c #93BBD2",
"075 c #93BCD3",
"076 c #94BDD4",
"077 c #96BFD5",
"078 c #91C2D6",
"079 c #82EAF3",
"080 c #ACCBE5",
"081 c #AFCCE5",
"082 c #BAD2EB",
"083 c #B8D2EC",
"084 c #BDD3EA",
"085 c #BCD4EB",
"086 c #BED4EA",
"087 c #BFD5EB",
"088 c #BDD5EC",
"089 c #C0D5EB",
"090 c #C2D6EA",
"091 c #C2D6EB",
"092 c #C3D7EA",
"093 c #C5D7E9",
"094 c #C4D7EA",
"095 c #C6D8EA",
"096 c #C6D8EB",
"097 c #C7D9EA",
"098 c #C9D9EA",
"099 c #CBDAE9",
"100 c #CDDBE9",
"101 c #CCDBEA",
"102 c #CEDBE9",
"103 c #D7DFE7",
"104 c #D0DCE9",
"105 c #D2DDE8",
"106 c #D4DEE8",
"107 c #D5DFE9",
"108 c #D7DFE8",
"109 c #DAE0E7",
"110 c #DBE1E7",
"111 c #DFE3E7",
"112 c #D8E0E8",
"113 c #DAE1E8",
"114 c #E2E4E6",
"115 c #E3E5E6",
"116 c #E5E5E6",
"117 c #E6E6E6",
"118 c black",
"119 c black",
"120 c black",
"121 c black",
"122 c black",
"123 c black",
"124 c black",
"125 c black",
"126 c black",
"127 c black",
"128 c black",
"129 c black",
"130 c black",
"131 c black",
"132 c black",
"133 c black",
"134 c black",
"135 c black",
"136 c black",
"137 c black",
"138 c black",
"139 c black",
"140 c black",
"141 c black",
"142 c black",
"143 c black",
"144 c black",
"145 c black",
"146 c black",
"147 c black",
"148 c black",
"149 c black",
"150 c black",
"151 c black",
"152 c black",
"153 c black",
"154 c black",
"155 c black",
"156 c black",
"157 c black",
"158 c black",
"159 c black",
"160 c black",
"161 c black",
"162 c black",
"163 c black",
"164 c black",
"165 c black",
"166 c black",
"167 c black",
"168 c black",
"169 c black",
"170 c black",
"171 c black",
"172 c black",
"173 c black",
"174 c black",
"175 c black",
"176 c black",
"177 c black",
"178 c black",
"179 c black",
"180 c black",
"181 c black",
"182 c black",
"183 c black",
"184 c black",
"185 c black",
"186 c black",
"187 c black",
"188 c black",
"189 c black",
"190 c black",
"191 c black",
"192 c black",
"193 c black",
"194 c black",
"195 c black",
"196 c black",
"197 c black",
"198 c black",
"199 c black",
"200 c black",
"201 c black",
"202 c black",
"203 c black",
"204 c black",
"205 c black",
"206 c black",
"207 c black",
"208 c black",
"209 c black",
"210 c black",
"211 c black",
"212 c black",
"213 c black",
"214 c black",
"215 c black",
"216 c black",
"217 c black",
"218 c black",
"219 c black",
"220 c black",
"221 c black",
"222 c black",
"223 c black",
"224 c black",
"225 c black",
"226 c black",
"227 c black",
"228 c black",
"229 c black",
"230 c black",
"231 c black",
"232 c black",
"233 c black",
"234 c black",
"235 c black",
"236 c black",
"237 c black",
"238 c black",
"239 c black",
"240 c black",
"241 c black",
"242 c black",
"243 c black",
"244 c black",
"245 c black",
"246 c black",
"247 c black",
"248 c black",
"249 c black",
"250 c black",
"251 c black",
"252 c black",
"253 c black",
"254 c black",
"255 c black",
"117117117117117117117117117117117117117117117117117117117117117117117117",
"117117117117117117117117117117117117117117117117117117117117117117117117",
"117117117117117117117117117117117117117117117117117117117117117117117117",
"117117117117117117117117117117117117117117117117117117117117117117117117",
"117117117117117008008008032117117117117117117008008008032117117117117117",
"117117117117117032118118118071117117117117055118118118071117117117117117",
"117117117117117117118118118118114117117103118118118118117117117117117117",
"117117117117117117081118118118008117117002118118118093117117117117117117",
"117117117117117117117002118118118093072118118118008117117117117117117117",
"117117117117117117117114118118118118118118118118114117117117117117117117",
"117117117117117117117117071118118118118118118072117117117117117117117117",
"117117117117117117117117117118118118118118002117117117117117117117117117",
"117117117117117117117117117099118118118118103117117117117117117117117117",
"117117117117117117117117117117002118118002117117117117117117117117117117",
"117117117117117117117117117117008118118008117117117117117117117117117117",
"117117117117117117117117117117008118118008117117117117117117117117117117",
"117117117117117117117117117117008118118008117117117117117117117117117117",
"117117117117117117117117117117008118118008117117117117117117117117117117",
"117117117117117117117117117117008118118008117117117117117117117117117117",
"117117117117117117117117117117072008008072117117117117117117117117117117",
"117117117117117117117117117117117117117117117117117117117117117117117117",
"117117117117117117117117117117117117117117117117117117117117117117117117",
"117117117117117117117117117117117117117117117117117117117117117117117117",
"117117117117117117117117117117117117117117117117117117117117117117117117"
};
